<svg width="1200" height="760" viewBox="0 0 1200 760" fill="none" xmlns="http://www.w3.org/2000/svg">
  <defs>
    <linearGradient id="bg3" x1="0" y1="0" x2="1200" y2="760" gradientUnits="userSpaceOnUse">
      <stop stop-color="#EEF9F5"/>
      <stop offset="1" stop-color="#DDF2EA"/>
    </linearGradient>
  </defs>
  <rect width="1200" height="760" fill="url(#bg3)"/>
  <rect x="140" y="100" width="420" height="560" rx="24" fill="#FFFFFF" stroke="#8CD0B6" stroke-width="4"/>
  <rect x="620" y="140" width="440" height="140" rx="20" fill="#FFFFFF" stroke="#8CD0B6" stroke-width="4"/>
  <rect x="620" y="310" width="440" height="140" rx="20" fill="#FFFFFF" stroke="#8CD0B6" stroke-width="4"/>
  <rect x="620" y="480" width="440" height="140" rx="20" fill="#FFFFFF" stroke="#8CD0B6" stroke-width="4"/>
  <rect x="190" y="170" width="320" height="26" rx="10" fill="#CDEBDE"/>
  <rect x="190" y="214" width="220" height="20" rx="10" fill="#DDF4EB"/>
  <rect x="190" y="248" width="250" height="20" rx="10" fill="#DDF4EB"/>
  <circle cx="350" cy="420" r="120" fill="#2F9F7D"/>
  <path d="M295 422L334 460L410 380" stroke="#F4FFF9" stroke-width="16" stroke-linecap="round" stroke-linejoin="round"/>
  <rect x="670" y="188" width="290" height="18" rx="9" fill="#DDF4EB"/>
  <rect x="670" y="358" width="320" height="18" rx="9" fill="#DDF4EB"/>
  <rect x="670" y="528" width="260" height="18" rx="9" fill="#DDF4EB"/>
</svg>
