<svg width="1200" height="760" viewBox="0 0 1200 760" fill="none" xmlns="http://www.w3.org/2000/svg">
  <defs>
    <linearGradient id="bg" x1="0" y1="0" x2="1200" y2="760" gradientUnits="userSpaceOnUse">
      <stop stop-color="#EAF4FF"/>
      <stop offset="1" stop-color="#DCEBFF"/>
    </linearGradient>
  </defs>
  <rect width="1200" height="760" fill="url(#bg)"/>
  <circle cx="980" cy="120" r="180" fill="#BCD7FF" fill-opacity="0.65"/>
  <circle cx="210" cy="620" r="210" fill="#CDE8FF" fill-opacity="0.65"/>
  <rect x="120" y="120" width="380" height="520" rx="34" fill="#FFFFFF" stroke="#7FAFE8" stroke-width="4"/>
  <rect x="150" y="180" width="320" height="72" rx="16" fill="#F4F9FF" stroke="#8AB6EB" stroke-width="3"/>
  <rect x="150" y="280" width="250" height="18" rx="9" fill="#D7E8FF"/>
  <rect x="150" y="312" width="220" height="18" rx="9" fill="#D7E8FF"/>
  <path d="M140 520C220 470 280 570 360 520C430 475 500 545 560 520" stroke="#5C95DA" stroke-width="5" stroke-linecap="round"/>
  <path d="M140 550C220 610 300 500 380 560C450 605 510 500 560 560" stroke="#2C6DBF" stroke-width="4" stroke-linecap="round"/>
  <circle cx="790" cy="400" r="120" fill="#FFFFFF" stroke="#8AB6EB" stroke-width="4"/>
  <circle cx="790" cy="370" r="34" fill="#4E8EDB"/>
  <rect x="725" y="420" width="130" height="76" rx="38" fill="#4E8EDB"/>
  <circle cx="955" cy="365" r="85" fill="#FFFFFF" stroke="#8AB6EB" stroke-width="4"/>
  <circle cx="955" cy="345" r="24" fill="#4E8EDB"/>
  <rect x="915" y="380" width="80" height="50" rx="25" fill="#4E8EDB"/>
</svg>
