<svg width="544" height="509" viewBox="0 0 544 509" fill="none" xmlns="http://www.w3.org/2000/svg">
<path d="M412.642 0.38746C417.107 -0.557852 420.497 0.384201 424.987 1.52466C434.077 3.83303 441.887 9.68474 446.509 17.847C450.617 25.1025 450.708 29.6365 450.799 37.8847C451.112 66.279 450.99 94.8419 450.98 123.231C450.956 186.113 450.96 221.368 450.959 284.25C450.958 336.054 450.969 365.099 450.969 416.903C450.969 429.528 451.04 442.217 450.948 454.842C450.796 475.601 453.76 494.697 431.343 505.597C423.035 509.637 413.444 510.111 404.805 506.85C395.75 503.432 387.966 496.274 384.664 487.069C379.671 473.148 382.152 452.474 382.167 437.641C382.183 421.214 384.617 295.166 380.433 287.053C378.605 283.507 375.118 281.249 371.384 280.119C367.22 278.86 362.367 279.228 358.647 281.606C345.526 289.994 353.831 329.367 350.552 344.742C348.697 353.438 344.52 362.007 336.664 366.743C328.545 371.638 316.413 372.662 307.283 370.119C297.352 367.353 289.868 360.138 286.118 350.593C281.204 338.084 282.884 322.391 282.932 309.181C283.025 284.16 283.094 270.132 283.244 245.111C283.319 232.518 287.74 201.465 271.702 197.658C264.431 195.933 256.287 202.511 255.822 210.188C255.02 223.418 255.655 237.2 255.653 250.633C255.645 297.731 255.632 324.136 255.615 371.234C255.61 382.851 256.471 419.025 254.355 428.244C252.284 437.267 246.471 444.969 238.445 449.586C229.952 454.472 219.799 455.606 210.462 452.623C176.16 441.664 189.169 400.148 186.944 372.965C185.538 355.796 194.196 329.6 172.599 324.482C172.114 324.367 171.815 324.005 171.354 324.196C155.482 330.736 158.8 343.022 158.681 357.717C158.6 367.614 163.464 378.669 159.037 387.533C145.178 415.279 99.8143 408.504 94.6157 376.32C92.374 362.442 93.3317 344.901 93.3232 330.524C93.3065 302.19 93.2965 286.304 93.2924 257.97C93.2886 231.186 93.2884 216.17 93.3009 189.387C93.3084 173.502 90.6794 148.084 100.384 135.534C106.116 128.123 114.614 123.356 123.92 122.276C140.34 120.371 158.04 131.315 160.576 148.143C164.896 176.804 160.013 207.353 162.413 236.393C163.769 252.809 178.464 256.149 185.439 242.233C188.274 236.577 186.979 216.198 186.939 208.414C186.781 176.948 186.723 159.306 186.623 127.84C186.545 103.528 180.649 59.1799 215.429 55.7435C271.707 50.1829 251.855 118.673 255.4 151.832C257.531 171.76 282.079 177.484 282.931 149.669C283.496 131.238 279.43 104.353 290.138 89.1346C301.35 73.201 323.999 70.5653 339.185 82.8041C354.538 95.1774 351.789 117.304 351.701 135.085C351.574 160.778 351.493 175.183 351.414 200.876C351.378 212.651 348.346 241.407 358.55 247.755C362.479 250.199 367.288 250.755 371.708 249.38C383.328 245.764 382.305 232.688 382.453 222.675C382.603 212.524 382.397 202.277 382.353 192.115C382.175 150.394 382.233 127.003 382.196 85.2812C382.18 67.3683 381.567 48.8384 382.742 31.0178C383.907 13.3555 396.949 3.70948 412.642 0.38746Z" fill="#FF7429"/>
<path d="M502.239 170.178C505.786 169.274 509.502 168.963 513.141 169.356C547.404 173.06 544.2 206.892 543.694 233.752C543.077 266.734 544.832 300.184 542.843 333.102C541.976 347.352 530.601 355.963 518.136 359.79C514.618 360.87 510.908 361.25 507.252 360.834C492.801 359.193 477.895 350.837 476.339 335.236C472.593 297.529 475.647 258.25 474.732 220.298C474.113 194.727 476.288 176.793 502.239 170.178Z" fill="#FF7429"/>
<path d="M27.8205 170.178C31.3671 169.274 35.0836 168.963 38.7226 169.356C72.9858 173.06 69.7814 206.892 69.2751 233.752C68.658 266.734 70.4137 300.184 68.4239 333.102C67.5577 347.352 56.1819 355.963 43.7174 359.79C40.1996 360.87 36.4898 361.25 32.8331 360.834C18.3826 359.193 3.47605 350.837 1.92033 335.236C-1.82515 297.529 1.22868 258.25 0.313591 220.298C-0.305757 194.727 1.86953 176.793 27.8205 170.178Z" fill="#FF7429"/>
</svg>
