<svg width="21" height="21" viewBox="0 0 21 21" fill="none" xmlns="http://www.w3.org/2000/svg">
<path d="M10.4994 8.00186C9.12164 8.00186 8.00116 9.12228 8.00116 10.5C8.00116 11.8777 9.12164 12.9981 10.4994 12.9981C11.8772 12.9981 12.9977 11.8777 12.9977 10.5C12.9977 9.12228 11.8772 8.00186 10.4994 8.00186ZM10.4994 12.4969C9.3974 12.4969 8.50244 11.602 8.50244 10.5C8.50244 9.39806 9.3974 8.50314 10.4994 8.50314C11.6015 8.50314 12.4964 9.39806 12.4964 10.5C12.4964 11.602 11.6015 12.4969 10.4994 12.4969ZM6.99537 2.26238C7.05073 2.1076 7.1922 2.00509 7.35724 2.00509H8.71966V0.252173C8.71966 0.112761 8.83243 0 8.97185 0C9.11127 0 9.22403 0.112761 9.22403 0.252173V2.25418C9.22403 2.39359 9.11127 2.50635 8.97185 2.50635H7.69349L10.4625 4.71646C10.486 4.73491 10.5147 4.73491 10.5363 4.71646L13.3053 2.50635H12.0269C11.8875 2.50635 11.7747 2.39359 11.7747 2.25418V0.252173C11.7747 0.112761 11.8875 0 12.0269 0C12.1663 0 12.2791 0.112761 12.2791 0.252173V2.00509H13.6415C13.8065 2.00509 13.949 2.10452 14.0034 2.26238C14.0587 2.42025 14.0085 2.5853 13.8804 2.68985L10.8489 5.10908C10.7464 5.19006 10.6234 5.23209 10.5004 5.23209C10.3774 5.23209 10.2533 5.19006 10.1519 5.10908L7.12044 2.68985C6.9882 2.58836 6.94104 2.42026 6.99537 2.26238ZM20.9969 12.0274C20.9969 12.1669 20.8842 12.2796 20.7447 12.2796H18.9917V13.642C18.9917 13.807 18.8923 13.9495 18.7344 14.0038C18.6924 14.0192 18.6483 14.0243 18.6063 14.0243C18.4935 14.0243 18.3828 13.9741 18.31 13.8798L15.8907 10.8485C15.7256 10.6415 15.7256 10.3555 15.8907 10.1474L18.31 7.11609C18.4125 6.98796 18.5806 6.93773 18.7375 6.99308C18.8954 7.04844 18.9948 7.1899 18.9948 7.35494V8.71729H20.7478C20.8872 8.71729 21 8.83005 21 8.96946C21 9.10887 20.8872 9.22163 20.7478 9.22163H18.7457C18.6063 9.22163 18.4935 9.10887 18.4935 8.96946V7.69117L16.2833 10.46C16.2648 10.4836 16.2648 10.5123 16.2833 10.5338L18.4935 13.3026V12.0243C18.4935 11.8849 18.6063 11.7722 18.7457 11.7722H20.7478C20.8842 11.7753 20.9969 11.888 20.9969 12.0274ZM14.0035 18.7376C13.9481 18.8955 13.8067 18.9949 13.6416 18.9949H12.2792V20.7478C12.2792 20.8872 12.1664 21 12.027 21C11.8876 21 11.7748 20.8872 11.7748 20.7478V18.7458C11.7748 18.6064 11.8876 18.4936 12.027 18.4936H13.3054L10.5364 16.2835C10.5128 16.2651 10.4841 16.2651 10.4626 16.2835L7.69361 18.4936H8.97197C9.11139 18.4936 9.22416 18.6064 9.22416 18.7458V20.7478C9.22416 20.8872 9.11139 21 8.97197 21C8.83255 21 8.71978 20.8872 8.71978 20.7478V18.9949H7.35737C7.19232 18.9949 7.04982 18.8955 6.99549 18.7376C6.94013 18.5798 6.98729 18.4147 7.11851 18.3102L10.1499 15.8909C10.357 15.7259 10.643 15.7259 10.8511 15.8909L13.8825 18.3102C14.0107 18.4116 14.0578 18.5797 14.0035 18.7376ZM2.39064 14.0274C2.34861 14.0274 2.30453 14.0192 2.2625 14.0069C2.10463 13.9515 2.00519 13.8101 2.00519 13.645V12.2827H0.252187C0.112767 12.2827 0 12.1699 0 12.0305C0 11.8911 0.112767 11.7783 0.252187 11.7783H2.25429C2.39371 11.7783 2.50648 11.8911 2.50648 12.0305V13.3088L4.7167 10.5399C4.73515 10.5164 4.73515 10.4877 4.7167 10.4661L2.50648 7.69731V8.9756C2.50648 9.11502 2.39371 9.22778 2.25429 9.22778H0.252187C0.112767 9.22778 0 9.11502 0 8.9756C0 8.83619 0.112767 8.72343 0.252187 8.72343H2.00519V7.36108C2.00519 7.19604 2.10463 7.05355 2.2625 6.99923C2.42037 6.94387 2.58543 6.99102 2.68999 7.12224L5.10934 10.1535C5.27439 10.3606 5.27439 10.6466 5.10934 10.8547L2.68999 13.8859C2.6131 13.9741 2.50545 14.0274 2.39064 14.0274ZM17.2758 15.9248C16.9929 15.9248 16.7305 16.0109 16.5152 16.1606L14.0927 13.7383L14.3285 13.5025C14.4864 13.3447 14.51 13.0956 14.3859 12.9121L14.103 12.4897L14.4546 11.642L14.9528 11.5446C15.1702 11.5026 15.3311 11.3088 15.3311 11.0853V9.91776C15.3311 9.69429 15.1712 9.50056 14.9528 9.45852L14.4546 9.36114L14.103 8.51338L14.3859 8.09103C14.509 7.90447 14.4854 7.65845 14.3285 7.50058L14.0927 7.26481L16.5152 4.8425C16.7325 4.99217 16.9949 5.07828 17.2758 5.07828C18.0211 5.07828 18.627 4.47244 18.627 3.72412C18.627 2.97579 18.0211 2.36996 17.2758 2.36996C16.5306 2.36996 15.9216 2.97579 15.9216 3.72412C15.9216 4.00704 16.0077 4.26946 16.1574 4.48473L13.735 6.90703L13.4992 6.67126C13.3413 6.51339 13.0922 6.48982 12.9087 6.61385L12.4863 6.89677L11.6385 6.54518L11.5411 6.04699C11.4991 5.82967 11.3053 5.66873 11.0819 5.66873H9.91423C9.69074 5.66873 9.497 5.82865 9.45496 6.04699L9.35757 6.54518L8.50977 6.89677L8.0874 6.61385C7.90082 6.49084 7.6548 6.51442 7.49692 6.67126L7.26113 6.90703L4.83871 4.48473C4.98838 4.26741 5.07449 4.00499 5.07449 3.72412C5.07449 2.97889 4.46863 2.37305 3.72336 2.37305C2.97809 2.37305 2.36913 2.97889 2.36913 3.72412C2.36913 4.46935 2.97499 5.07828 3.72336 5.07828C4.00629 5.07828 4.26873 4.99217 4.48401 4.8425L6.90643 7.26481L6.67065 7.50058C6.51278 7.65844 6.4892 7.90755 6.61324 8.09103L6.89618 8.51338L6.54456 9.36114L6.04635 9.45852C5.82902 9.50055 5.66807 9.69429 5.66807 9.91776V11.0853C5.66807 11.3088 5.828 11.5025 6.04635 11.5446L6.54456 11.642L6.89618 12.4897L6.61324 12.9121C6.49022 13.0986 6.5138 13.3446 6.67065 13.5025L6.90643 13.7383L4.48401 16.1606C4.26668 16.0109 4.00424 15.9248 3.72336 15.9248C2.97809 15.9248 2.37223 16.5307 2.37223 17.2759C2.37223 18.0211 2.97809 18.63 3.72336 18.63C4.46863 18.63 5.07759 18.0242 5.07759 17.2759C5.07759 16.993 4.99148 16.7305 4.8418 16.5153L7.26423 14.093L7.50001 14.3287C7.65789 14.4866 7.907 14.5102 8.0905 14.3862L8.51287 14.1032L9.36067 14.4548L9.45806 14.953C9.50009 15.1703 9.69384 15.3313 9.91732 15.3313H11.085C11.3084 15.3313 11.5022 15.1714 11.5442 14.953L11.6416 14.4548L12.4894 14.1032L12.9118 14.3862C13.0984 14.5092 13.3444 14.4856 13.5023 14.3287L13.7381 14.093L16.1605 16.5153C16.0108 16.7326 15.9247 16.995 15.9247 17.2759C15.9247 18.0211 16.5306 18.627 17.2789 18.627C18.0242 18.627 18.6301 18.0211 18.6301 17.2759C18.6301 16.5307 18.0211 15.9248 17.2758 15.9248ZM17.2758 2.87449C17.7454 2.87449 18.1257 3.25479 18.1257 3.7243C18.1257 4.1938 17.7454 4.5741 17.2758 4.5741C16.8063 4.5741 16.426 4.1938 16.426 3.7243C16.425 3.25479 16.8063 2.87449 17.2758 2.87449ZM3.7233 4.57513C3.25377 4.57513 2.87345 4.19482 2.87345 3.72532C2.87345 3.25582 3.25377 2.87551 3.7233 2.87551C4.19283 2.87551 4.57315 3.25582 4.57315 3.72532C4.57418 4.1938 4.19283 4.57513 3.7233 4.57513ZM3.7233 18.1259C3.25377 18.1259 2.87345 17.7456 2.87345 17.2761C2.87345 16.8066 3.25377 16.4263 3.7233 16.4263C4.19283 16.4263 4.57315 16.8066 4.57315 17.2761C4.57418 17.7456 4.19283 18.1259 3.7233 18.1259ZM13.1658 13.9507L12.6563 13.6094C12.5856 13.5622 12.4984 13.554 12.4205 13.5858L11.3257 14.0399C11.2467 14.0717 11.1914 14.1394 11.176 14.2234L11.0581 14.8272H9.94785L9.82996 14.2234C9.81458 14.1424 9.75615 14.0717 9.68029 14.0399L8.58542 13.5858C8.50649 13.554 8.42037 13.5622 8.34964 13.6094L7.84014 13.9507L7.0559 13.1665L7.39728 12.6571C7.44444 12.5863 7.45264 12.4992 7.42086 12.4213L6.96671 11.3265C6.93493 11.2476 6.86727 11.1922 6.78321 11.1768L6.17939 11.0589V9.94876L6.78321 9.83088C6.8642 9.8155 6.93493 9.75707 6.96671 9.68121L7.42086 8.58641C7.45264 8.50747 7.44444 8.42136 7.39728 8.35063L7.0559 7.84116L7.84014 7.05696L8.34964 7.39832C8.42037 7.44548 8.50751 7.45368 8.58542 7.4219L9.68029 6.96778C9.75922 6.936 9.81458 6.86834 9.82996 6.78428L9.94785 6.1805H11.0581L11.176 6.78428C11.1914 6.86527 11.2498 6.936 11.3257 6.96778L12.4205 7.4219C12.4995 7.45368 12.5856 7.44548 12.6563 7.39832L13.1658 7.05696L13.95 7.84116L13.6087 8.35063C13.5615 8.42136 13.5533 8.5085 13.5851 8.58641L14.0392 9.68121C14.071 9.76014 14.1387 9.8155 14.2227 9.83088L14.8265 9.94876V11.0589L14.2227 11.1768C14.1417 11.1922 14.071 11.2506 14.0392 11.3265L13.5851 12.4213C13.5533 12.5002 13.5615 12.5863 13.6087 12.6571L13.95 13.1665L13.1658 13.9507ZM17.2756 18.1259C16.806 18.1259 16.4257 17.7456 16.4257 17.2761C16.4257 16.8066 16.806 16.4263 17.2756 16.4263C17.7451 16.4263 18.1254 16.8066 18.1254 17.2761C18.1254 17.7456 17.7451 18.1259 17.2756 18.1259Z" fill="#0B1D33"/>
</svg>
