<svg width="402" height="598" viewBox="0 0 402 598" fill="none" xmlns="http://www.w3.org/2000/svg">
<path d="M-582 299.045L-539.927 299.078L-539.909 341.115L-582 341.18V299.045Z" fill="#FF7429"/>
<path d="M-69.013 0.108341L-27.0172 0L-26.9631 598L-68.9759 597.936L-69.013 0.108341Z" fill="#FF7429"/>
<path d="M-155.163 84.3499L-111.084 84.3057L-111.118 329.345C-111.124 390.492 -111.691 452.614 -110.934 513.698L-155.271 513.636L-155.163 84.3499Z" fill="#FF7429"/>
<path d="M17.1611 84.3517L59.268 84.3617L59.1559 457.196C59.1569 474.368 58.6229 496.974 59.8181 513.685L17.0609 513.614L17.1611 84.3517Z" fill="#FF7429"/>
<path d="M187.55 170.384C199.613 171.086 217.087 170.547 229.557 170.538L229.508 469.56L187.49 469.529C186.456 371.463 186.711 268.461 187.55 170.384Z" fill="#FF7429"/>
<path d="M-239.278 170.646L-197.318 170.442L-197.223 469.505L-239.357 469.528L-239.278 170.646Z" fill="#FF7429"/>
<path d="M-411.588 212.726L-367.619 212.637L-367.608 427.496L-411.697 427.438L-411.588 212.726Z" fill="#FF7429"/>
<path d="M101.352 212.727C115.883 212.886 130.761 212.682 145.321 212.645L145.341 427.495L101.24 427.433L101.352 212.727Z" fill="#FF7429"/>
<path d="M-325.54 256.938L-283.398 256.88L-283.395 385.298L-325.445 385.268L-325.54 256.938Z" fill="#FF7429"/>
<path d="M-495.765 256.888L-453.643 256.911C-454.202 299.129 -453.853 343.005 -453.582 385.25L-495.834 385.259L-495.765 256.888Z" fill="#FF7429"/>
<path d="M273.669 256.867L315.532 256.931C316.226 299.044 315.662 343.102 315.717 385.334L273.588 385.27L273.669 256.867Z" fill="#FF7429"/>
<path d="M357.816 299.062L401.81 299.085C401.764 313.108 401.828 327.132 402 341.155L357.683 341.076L357.816 299.062Z" fill="#FF7429"/>
</svg>
