<svg width="459" height="598" viewBox="0 0 459 598" fill="none" xmlns="http://www.w3.org/2000/svg">
<path d="M0 299.045L42.0731 299.078L42.0912 341.115L0 341.18V299.045Z" fill="#00AAAA"/>
<path d="M512.987 0.108341L554.983 0L555.037 598L513.024 597.936L512.987 0.108341Z" fill="#00AAAA"/>
<path d="M426.837 84.3499L470.916 84.3057L470.882 329.345C470.876 390.492 470.309 452.614 471.066 513.698L426.729 513.636L426.837 84.3499Z" fill="#00AAAA"/>
<path d="M599.161 84.3517L641.268 84.3617L641.156 457.196C641.157 474.368 640.623 496.974 641.818 513.685L599.061 513.614L599.161 84.3517Z" fill="#00AAAA"/>
<path d="M769.55 170.384C781.613 171.086 799.087 170.547 811.557 170.538L811.508 469.56L769.49 469.529C768.456 371.463 768.711 268.461 769.55 170.384Z" fill="#00AAAA"/>
<path d="M342.722 170.646L384.682 170.442L384.777 469.505L342.643 469.528L342.722 170.646Z" fill="#00AAAA"/>
<path d="M170.412 212.726L214.381 212.637L214.392 427.496L170.303 427.438L170.412 212.726Z" fill="#00AAAA"/>
<path d="M683.352 212.727C697.883 212.886 712.761 212.682 727.321 212.645L727.341 427.495L683.24 427.433L683.352 212.727Z" fill="#00AAAA"/>
<path d="M256.46 256.938L298.602 256.88L298.605 385.298L256.555 385.268L256.46 256.938Z" fill="#00AAAA"/>
<path d="M86.2346 256.888L128.357 256.911C127.798 299.129 128.147 343.005 128.418 385.25L86.1657 385.259L86.2346 256.888Z" fill="#00AAAA"/>
<path d="M855.669 256.867L897.532 256.931C898.226 299.044 897.662 343.102 897.717 385.334L855.588 385.27L855.669 256.867Z" fill="#00AAAA"/>
<path d="M939.816 299.062L983.81 299.085C983.764 313.108 983.828 327.132 984 341.155L939.683 341.076L939.816 299.062Z" fill="#00AAAA"/>
</svg>
