<svg width="21" height="21" viewBox="0 0 21 21" fill="none" xmlns="http://www.w3.org/2000/svg">
<path d="M21 15.75H9V17.25H21V15.75Z" fill="white"/>
<path d="M19.5 0H3C2.175 0 1.5 0.675 1.5 1.5V8.25H6.75C7.9875 8.25 9 9.2625 9 10.5V14.25H19.5C20.325 14.25 21 13.575 21 12.75V1.5C21 0.675 20.325 0 19.5 0Z" fill="white"/>
<path d="M6.75 9H1.5C0.675 9 0 9.675 0 10.5V19.5C0 20.325 0.675 21 1.5 21H6.75C7.575 21 8.25 20.325 8.25 19.5V10.5C8.25 9.675 7.575 9 6.75 9ZM4.875 19.875H3.375C3.15 19.875 3 19.725 3 19.5C3 19.275 3.15 19.125 3.375 19.125H4.875C5.1 19.125 5.25 19.275 5.25 19.5C5.25 19.725 5.1 19.875 4.875 19.875Z" fill="white"/>
</svg>
