<svg width="16" height="16" viewBox="0 0 16 16" fill="none" xmlns="http://www.w3.org/2000/svg">
<g clip-path="url(#clip0_3198_565)">
<path fill-rule="evenodd" clip-rule="evenodd" d="M1.7954 10.8467C2.01109 10.8467 2.21796 10.9323 2.37047 11.0849C2.52299 11.2374 2.60868 11.4442 2.60868 11.6599V13.2865C2.60868 13.5021 2.69437 13.7091 2.84688 13.8615C2.9994 14.0141 3.20627 14.0998 3.42196 14.0998H13.1813C13.397 14.0998 13.6039 14.0141 13.7564 13.8615C13.9089 13.7091 13.9946 13.5021 13.9946 13.2865V11.6599C13.9946 11.4442 14.0803 11.2374 14.2328 11.0849C14.3853 10.9323 14.5922 10.8467 14.8079 10.8467C15.0236 10.8467 15.2305 10.9323 15.383 11.0849C15.5355 11.2374 15.6212 11.4442 15.6212 11.6599V13.2865C15.6212 13.9335 15.3641 14.5542 14.9066 15.0117C14.449 15.4693 13.8284 15.7263 13.1813 15.7263H3.42196C2.77488 15.7263 2.15429 15.4693 1.69673 15.0117C1.23917 14.5542 0.982117 13.9335 0.982117 13.2865V11.6599C0.982117 11.4442 1.0678 11.2374 1.22032 11.0849C1.37284 10.9323 1.5797 10.8467 1.7954 10.8467Z" fill="#4D4D4D"/>
<path fill-rule="evenodd" clip-rule="evenodd" d="M3.66073 6.20532C3.81324 6.05285 4.02006 5.9672 4.23571 5.9672C4.45137 5.9672 4.65819 6.05285 4.8107 6.20532L8.30208 9.6967L11.7935 6.20532C11.8686 6.12764 11.9583 6.06569 12.0575 6.02306C12.1567 5.98044 12.2635 5.958 12.3714 5.95706C12.4795 5.95612 12.5865 5.9767 12.6865 6.0176C12.7864 6.05849 12.8772 6.11888 12.9536 6.19524C13.0299 6.2716 13.0903 6.3624 13.1313 6.46235C13.1721 6.5623 13.1927 6.6694 13.1918 6.77738C13.1908 6.88537 13.1684 6.99209 13.1258 7.09131C13.0831 7.19053 13.0212 7.28028 12.9435 7.35529L8.87709 11.4217C8.72456 11.5742 8.51778 11.6598 8.30208 11.6598C8.08646 11.6598 7.87964 11.5742 7.72713 11.4217L3.66073 7.35529C3.50825 7.20278 3.42261 6.99596 3.42261 6.78031C3.42261 6.56466 3.50825 6.35783 3.66073 6.20532Z" fill="#4D4D4D"/>
<path fill-rule="evenodd" clip-rule="evenodd" d="M8.30142 0.273926C8.51711 0.273926 8.72397 0.35961 8.87643 0.51213C9.02896 0.66465 9.11467 0.871511 9.11467 1.08721V10.8466C9.11467 11.0623 9.02896 11.2691 8.87643 11.4216C8.72397 11.5742 8.51711 11.6599 8.30142 11.6599C8.08572 11.6599 7.87883 11.5742 7.72631 11.4216C7.57379 11.2691 7.4881 11.0623 7.4881 10.8466V1.08721C7.4881 0.871511 7.57379 0.66465 7.72631 0.51213C7.87883 0.35961 8.08572 0.273926 8.30142 0.273926Z" fill="#4D4D4D"/>
</g>
<defs>
<clipPath id="clip0_3198_565">
<rect width="16" height="16" fill="white"/>
</clipPath>
</defs>
</svg>
