<svg width="16" height="16" viewBox="0 0 16 16" fill="none" xmlns="http://www.w3.org/2000/svg">
<mask id="path-1-inside-1_3198_615" fill="white">
<path d="M2 6C2 3.79086 3.79086 2 6 2H10C12.2091 2 14 3.79086 14 6V10C14 12.2091 12.2091 14 10 14H6C3.79086 14 2 12.2091 2 10V6Z"/>
</mask>
<path d="M6 2V4H10V2V0H6V2ZM14 6H12V10H14H16V6H14ZM10 14V12H6V14V16H10V14ZM2 10H4V6H2H0V10H2ZM6 14V12C4.89543 12 4 11.1046 4 10H2H0C0 13.3137 2.68629 16 6 16V14ZM14 10H12C12 11.1046 11.1046 12 10 12V14V16C13.3137 16 16 13.3137 16 10H14ZM10 2V4C11.1046 4 12 4.89543 12 6H14H16C16 2.68629 13.3137 0 10 0V2ZM6 2V0C2.68629 0 0 2.68629 0 6H2H4C4 4.89543 4.89543 4 6 4V2Z" fill="#B2B2B2" mask="url(#path-1-inside-1_3198_615)"/>
<rect x="6" y="6" width="4" height="4" rx="2" fill="#B2B2B2"/>
</svg>
