<svg width="21" height="21" viewBox="0 0 21 21" fill="none" xmlns="http://www.w3.org/2000/svg">
<path d="M18.4093 13.4973C18.3422 13.4293 18.262 13.3736 18.174 13.337L10.8727 10.353C10.7524 10.3042 10.6261 10.2789 10.4989 10.2789C10.3716 10.2789 10.2444 10.305 10.125 10.353C8.3073 11.0979 4.64222 12.592 2.8237 13.337C2.56664 13.4433 2.388 13.6985 2.38887 13.9834V17.2732C2.38887 17.5581 2.55967 17.8125 2.8237 17.9197L10.2341 20.9481C10.4049 21.0178 10.5923 21.0169 10.7631 20.9481L18.1735 17.9197C18.4375 17.8116 18.6074 17.5572 18.6074 17.2732C18.6065 17.2662 18.6092 13.9825 18.6065 13.9765C18.6048 13.7927 18.5316 13.6228 18.4079 13.4973L18.4093 13.4973ZM10.2897 10.7564C10.423 10.7024 10.5738 10.7015 10.7071 10.7564L18.0078 13.7404C18.0548 13.7587 18.0941 13.7944 18.1263 13.8362C18.1551 13.8789 18.1716 13.9303 18.1716 13.9843V17.2741C18.1716 17.3813 18.1071 17.4771 18.0078 17.5181L10.7158 20.4976V17.0301C10.7603 17.0196 17.3305 14.3266 17.3776 14.3101C17.4891 14.2648 17.5423 14.1376 17.497 14.0261C17.4517 13.9146 17.3244 13.8615 17.2129 13.9068L10.5982 16.6102C10.5337 16.6363 10.4631 16.6363 10.3995 16.6102L3.18341 13.661L10.2904 10.7564L10.2897 10.7564ZM2.98906 17.5164C2.88972 17.4754 2.82524 17.3805 2.82524 17.2724V13.9844C2.86881 14.0001 10.2408 17.0197 10.2809 17.0284V20.496L2.98906 17.5164Z" fill="#0B1D33"/>
<path d="M10.7629 15.3505L13.4164 14.2658C13.6673 14.163 13.8233 13.9312 13.8233 13.6603C13.8233 13.3893 13.6673 13.1567 13.4164 13.0548L10.7629 11.971C10.5921 11.9013 10.4047 11.9013 10.2339 11.971L7.58042 13.0548C7.04189 13.2613 7.04189 14.0593 7.58042 14.2658L10.2339 15.3505C10.4047 15.4202 10.5921 15.4202 10.7629 15.3505ZM7.74619 13.8633C7.56059 13.7849 7.56581 13.5339 7.74619 13.4582L10.3997 12.3743C10.4642 12.3482 10.5348 12.3482 10.5984 12.3743L13.2519 13.4582C13.4375 13.5366 13.4323 13.7875 13.2519 13.8633L10.5984 14.948C10.5339 14.9741 10.4633 14.9741 10.3997 14.948L7.74619 13.8633Z" fill="#0B1D33"/>
<path d="M16.8984 15.373C16.7311 15.2606 16.5211 15.2397 16.3346 15.3155L15.3857 15.7032C15.3848 15.7032 12.0997 17.0467 12.0979 17.0467C11.8705 17.1399 11.7232 17.3586 11.7232 17.6042V18.5539C11.7163 18.878 12.0038 19.1629 12.3254 19.1568C12.4021 19.1568 12.4796 19.142 12.5537 19.1115C13.4155 18.7595 15.9688 17.7158 16.7895 17.3803C17.0169 17.2871 17.1642 17.0684 17.1642 16.8227V15.8731C17.1642 15.6718 17.0648 15.4854 16.8975 15.373L16.8984 15.373ZM12.3898 18.7081C12.273 18.7508 12.165 18.6776 12.1597 18.5539V17.6042C12.1597 17.5363 12.2007 17.4753 12.2634 17.45L15.2522 16.2285V17.5389L12.3897 18.7089L12.3898 18.7081ZM16.7293 16.8227C16.7293 16.8907 16.6883 16.9517 16.6256 16.9769L15.688 17.3603V16.05L16.4993 15.718C16.616 15.6762 16.7241 15.7485 16.7293 15.8722V16.8219L16.7293 16.8227Z" fill="#0B1D33"/>
<path d="M5.94997 16.9004L4.13225 16.1572C3.86386 16.0553 3.70351 16.4447 3.96755 16.5606L5.78528 17.3038C5.81229 17.3151 5.84018 17.3203 5.86719 17.3203C6.10073 17.322 6.17044 16.9901 5.94997 16.9012V16.9004Z" fill="#0B1D33"/>
<path d="M7.93336 17.3429C7.8131 17.3429 7.71551 17.4405 7.71551 17.5607V18.1871C7.72248 18.4746 8.14424 18.4746 8.1512 18.1871V17.5607C8.1512 17.4405 8.05361 17.3429 7.93336 17.3429Z" fill="#0B1D33"/>
<path d="M6.81016 16.8839C6.68991 16.8839 6.59231 16.9814 6.59231 17.1017V17.7281C6.59928 18.0156 7.02104 18.0156 7.028 17.7281V17.1017C7.028 16.9814 6.93041 16.8839 6.81016 16.8839Z" fill="#0B1D33"/>
<path d="M9.05566 17.8021C8.93541 17.8021 8.83781 17.8997 8.83781 18.0199V18.6463C8.84478 18.9339 9.26654 18.9339 9.2735 18.6463V18.0199C9.2735 17.8997 9.17591 17.8021 9.05566 17.8021Z" fill="#0B1D33"/>
<path d="M20.9981 7.87184C20.9972 7.83525 20.9833 7.80214 20.9676 7.7699L18.9094 4.40963C19.3189 4.05328 19.373 3.34759 19.0157 2.93375L20.05 2.89541C20.5668 2.88496 21.0094 2.42668 20.9998 1.90917C20.9998 1.37685 20.5824 0.943842 20.05 0.923791L18.3857 0.861062C18.4153 0.529116 17.9386 0.512567 17.95 0.844508L13.0099 0.659807C12.8888 0.654579 12.7886 0.748674 12.7842 0.868904C12.7799 0.989134 12.8731 1.0902 12.9934 1.09455L17.9499 1.28012V2.53645L12.2171 2.75077C12.5491 2.09212 12.448 1.24962 11.9713 0.68855C11.2568 -0.199249 9.84512 -0.234957 9.08692 0.618851L3.04821 0.844497C3.05954 0.512551 2.58289 0.529101 2.61252 0.861051L0.948157 0.922908C-0.311005 1.00742 -0.311005 2.80913 0.948157 2.89364L1.9825 2.93197C1.62522 3.34669 1.67925 4.05238 2.08881 4.40785L0.030563 7.7708C0.0140064 7.80217 0.000935975 7.83615 6.37415e-05 7.87274C-0.010393 9.43748 1.26708 10.7165 2.83114 10.7156C4.40228 10.7182 5.71018 9.40696 5.6553 7.82991C5.65008 7.80901 5.64049 7.78984 5.63091 7.77067L3.57266 4.4104C3.95695 4.07758 4.0345 3.41282 3.72777 2.999L9.08676 3.19938C9.14776 3.26647 9.21398 3.3292 9.28457 3.3867H8.65194C8.08466 3.3867 7.62282 3.84845 7.62282 4.41564C7.62108 5.0438 8.17355 5.50207 8.78789 5.44457L8.54214 9.13784C8.52994 9.42185 8.94995 9.45497 8.97697 9.16659C8.97697 9.15962 9.24013 5.2407 9.23839 5.23378C9.24362 5.12575 9.15822 5.02381 9.05017 5.01162C9.05801 5.00552 8.66065 5.00987 8.65282 5.009C7.8677 4.97938 7.86596 3.852 8.65282 3.82238H12.3459C12.6735 3.82238 12.9393 4.08898 12.9393 4.4157C12.9393 4.7433 12.6727 5.00903 12.3459 5.00903H10.1979C9.91118 5.016 9.91031 5.43768 10.1979 5.44464H11.7734L12.0217 9.16668C12.0296 9.28168 12.1254 9.36968 12.2387 9.36968C12.3642 9.37055 12.4653 9.26251 12.4565 9.13705L12.2108 5.44378C12.8251 5.50128 13.3776 5.04301 13.3759 4.41485C13.3759 3.84766 12.914 3.38591 12.3467 3.38591H11.7141C11.7847 3.32841 11.8501 3.26568 11.9119 3.19772L17.2709 2.99734C16.9642 3.41118 17.0418 4.07592 17.426 4.40874L15.3678 7.76901C15.3608 7.78382 15.353 7.79776 15.3477 7.81344C15.2693 9.39299 16.5965 10.7181 18.1677 10.7138C19.7318 10.7147 21.0101 9.43483 20.9987 7.8701L20.9981 7.87184ZM0.433932 1.90917C0.433932 1.61208 0.666602 1.36987 0.963741 1.35854L2.61242 1.29668V2.52077L0.963741 2.45892C0.666602 2.44759 0.433932 2.20626 0.433932 1.90828V1.90917ZM2.83023 10.28C1.58238 10.28 0.554171 9.3216 0.443524 8.10188H5.21627C5.1056 9.32162 4.07735 10.28 2.82956 10.28H2.83023ZM3.20146 4.63869L5.05579 7.6662H0.60472L2.45905 4.63869C2.69694 4.72495 2.96357 4.72495 3.20146 4.63869ZM3.48378 3.615C3.49424 4.1177 2.90429 4.43745 2.4904 4.17172C1.95186 3.84413 2.15317 3.006 2.7884 2.96331L2.92173 2.96854C3.23892 3.01297 3.48378 3.28569 3.48378 3.615ZM8.78098 2.7516L3.04811 2.53728V1.28096L8.78098 1.06663C8.5213 1.58762 8.5213 2.22972 8.78098 2.7516ZM9.27419 2.73505C8.61803 1.77407 9.31427 0.427955 10.4985 0.431524C11.6209 0.423683 12.3328 1.66345 11.7917 2.62181C11.2706 3.58366 9.8789 3.64548 9.27419 2.73505ZM20.0332 1.35936C20.5038 1.36981 20.7391 1.95877 20.4088 2.29158C20.3095 2.39526 20.1761 2.45451 20.0332 2.4606L18.3845 2.52246V1.29837L20.0332 1.36022V1.35936ZM18.2111 2.96417C18.551 2.98683 18.8202 3.26998 18.8202 3.615C18.7889 4.47839 17.5436 4.47752 17.5131 3.615C17.5131 3.28653 17.7571 3.01384 18.0743 2.96855L18.2111 2.96332L18.2111 2.96417ZM17.7955 4.63869C18.0334 4.72494 18.3 4.72494 18.5379 4.63869L20.3922 7.66619H15.9412L17.7955 4.63869ZM18.1667 10.28C16.9188 10.28 15.8906 9.32159 15.78 8.10187H20.5527C20.4421 9.32162 19.4138 10.28 18.166 10.28H18.1667Z" fill="#0B1D33"/>
</svg>
