<svg width="15" height="30" viewBox="0 0 15 30" fill="none" xmlns="http://www.w3.org/2000/svg">
<path d="M5.05236 30H-6.02662C-8.58538 30 -10.667 27.8972 -10.667 25.3125V9.43361C-10.667 6.84885 -8.58538 4.74609 -6.02662 4.74609H5.05236C7.6111 4.74609 9.69261 6.84885 9.69261 9.43361V25.3125C9.69261 27.8972 7.6111 30 5.05236 30ZM-6.02662 7.08984C-7.30592 7.08984 -8.3468 8.14132 -8.3468 9.43361V25.3125C-8.3468 26.6048 -7.30592 27.6562 -6.02662 27.6562H5.05236C6.33151 27.6562 7.37241 26.6048 7.37241 25.3125V9.43361C7.37241 8.14132 6.33151 7.08984 5.05236 7.08984H-6.02662ZM14.333 22.3828V4.6875C14.333 2.10276 12.2514 0 9.69261 0H-3.18439C-3.82516 0 -4.34448 0.52459 -4.34448 1.17187C-4.34448 1.81916 -3.82516 2.34375 -3.18439 2.34375H9.69261C10.9719 2.34375 12.0128 3.39521 12.0128 4.6875V22.3828C12.0128 23.0301 12.5322 23.5548 13.173 23.5548C13.8137 23.5548 14.333 23.0301 14.333 22.3828Z" fill="#BBBBBB"/>
</svg>
