<svg width="16" height="16" viewBox="0 0 16 16" fill="none" xmlns="http://www.w3.org/2000/svg">
<path d="M9.6753 15.6182H3.94274C2.61877 15.6182 1.54169 14.5411 1.54169 13.2171V5.08359C1.54169 3.75961 2.61877 2.68253 3.94274 2.68253H9.6753C10.9993 2.68253 12.0763 3.75961 12.0763 5.08359V13.2171C12.0763 14.5411 10.9993 15.6182 9.6753 15.6182ZM3.94274 3.88306C3.2808 3.88306 2.74221 4.42165 2.74221 5.08359V13.2171C2.74221 13.8791 3.2808 14.4177 3.94274 14.4177H9.6753C10.3372 14.4177 10.8758 13.8791 10.8758 13.2171V5.08359C10.8758 4.42165 10.3372 3.88306 9.6753 3.88306H3.94274ZM14.4774 11.7165V2.65252C14.4774 1.32855 13.4002 0.251465 12.0763 0.251465H5.41338C5.08183 0.251465 4.81313 0.520173 4.81313 0.851727C4.81313 1.18329 5.08183 1.45199 5.41338 1.45199H12.0763C12.7382 1.45199 13.2768 1.99058 13.2768 2.65252V11.7165C13.2768 12.0481 13.5455 12.3168 13.8771 12.3168C14.2086 12.3168 14.4774 12.0481 14.4774 11.7165Z" fill="#4D4D4D"/>
</svg>
