<svg width="16" height="16" viewBox="0 0 16 16" fill="none" xmlns="http://www.w3.org/2000/svg">
<path d="M8.32541 13.4487H13.4487" stroke="#BBBBBB" stroke-width="1.28083" stroke-linecap="round" stroke-linejoin="round"/>
<path d="M13.5602 4.36269C13.8988 4.02418 14.089 3.56503 14.0891 3.08625C14.0891 2.60746 13.899 2.14826 13.5605 1.80967C13.222 1.47108 12.7628 1.28082 12.2841 1.28076C11.8053 1.2807 11.3461 1.47084 11.0075 1.80935L2.46047 10.3583C2.31178 10.5065 2.20182 10.6891 2.14027 10.8898L1.29428 13.6769C1.27772 13.7323 1.27647 13.7911 1.29066 13.8472C1.30484 13.9032 1.33393 13.9544 1.37484 13.9952C1.41574 14.036 1.46694 14.065 1.52301 14.0791C1.57907 14.0932 1.6379 14.0919 1.69325 14.0752L4.48099 13.2299C4.68155 13.1689 4.86407 13.0596 5.01253 12.9116L13.5602 4.36269Z" stroke="#BBBBBB" stroke-width="1.28083" stroke-linecap="round" stroke-linejoin="round"/>
</svg>
