<?xml version="1.0" standalone="no"?>
<!DOCTYPE svg PUBLIC "-//W3C//DTD SVG 1.1//EN" "http://www.w3.org/Graphics/SVG/1.1/DTD/svg11.dtd">
<svg xmlns="http://www.w3.org/2000/svg" width="378" height="50" viewBox="0 0 378 50" fill="none">
<path fill-rule="evenodd" clip-rule="evenodd" d="M0 0H25C38.8071 0 50 11.1929 50 25C50 38.8071 38.8071 50 25 50H0V0ZM9.5 19H13.5V31H9.5V19ZM22.5 15H18.5V35H22.5V15ZM27.5 11H31.5V39H27.5V11ZM40.5 21H36.5V29H40.5V21Z" fill="#FF7429"/>
<path d="M291.672 49.0766V14.4459H301.17V49.0766H291.672Z" fill="#111111"/>
<path d="M296.487 9.23484C294.64 9.23484 293.211 8.86105 292.199 8.11346C291.232 7.3219 290.748 6.17854 290.748 4.68338C290.748 3.14424 291.232 1.97889 292.199 1.18734C293.211 0.395778 294.64 0 296.487 0C298.378 0 299.807 0.395778 300.775 1.18734C301.786 1.97889 302.292 3.14424 302.292 4.68338C302.292 6.13457 301.786 7.25594 300.775 8.0475C299.807 8.83906 298.378 9.23484 296.487 9.23484Z" fill="#111111"/>
<path fill-rule="evenodd" clip-rule="evenodd" d="M321.906 48.7467C323.533 49.5822 325.446 50 327.644 50C330.591 50 333.119 49.2524 335.23 47.7572C337.385 46.2621 339.034 44.1732 340.177 41.4907C341.321 38.7643 341.892 35.576 341.892 31.9261C341.892 28.1882 341.299 24.956 340.111 22.2295C338.968 19.503 337.341 17.3922 335.23 15.897C333.119 14.4019 330.613 13.6543 327.71 13.6543C325.599 13.6543 323.775 14.0941 322.235 14.9736C320.696 15.8091 319.421 17.0404 318.41 18.6675C317.442 20.2506 316.672 22.1416 316.101 24.3403H314.65C314.913 22.9771 315.155 21.6578 315.375 20.3825C315.639 19.1072 315.837 17.8759 315.969 16.6886C316.101 15.4573 316.167 14.3139 316.167 13.2585V1.91286H306.668V49.0765H314.518L314.584 39.0501H315.837C316.233 41.3808 316.936 43.3597 317.948 44.9868C318.959 46.6139 320.278 47.8672 321.906 48.7467ZM328.37 40.963C327.227 41.7986 325.863 42.2163 324.28 42.2163C322.873 42.2163 321.664 41.9085 320.652 41.2928C319.641 40.6772 318.783 39.8856 318.08 38.9182C317.42 37.9067 316.936 36.8293 316.629 35.686C316.321 34.4986 316.167 33.3993 316.167 32.3878V31.1345C316.167 30.299 316.277 29.4195 316.497 28.496C316.716 27.5725 317.068 26.693 317.552 25.8575C318.036 24.978 318.607 24.2084 319.267 23.5488C319.927 22.8452 320.696 22.2955 321.576 21.8997C322.455 21.5039 323.423 21.306 324.478 21.306C326.061 21.306 327.402 21.7458 328.502 22.6253C329.601 23.5048 330.437 24.7141 331.008 26.2533C331.624 27.7924 331.932 29.6174 331.932 31.7282C331.932 33.839 331.624 35.686 331.008 37.2691C330.393 38.8522 329.513 40.0835 328.37 40.963Z" fill="#111111"/>
<path fill-rule="evenodd" clip-rule="evenodd" d="M353.878 48.8127C356.12 49.6042 358.671 50 361.529 50C363.904 50 365.971 49.7361 367.73 49.2084C369.533 48.7247 371.072 48.0211 372.347 47.0976C373.623 46.1302 374.634 45.0088 375.382 43.7335C376.173 42.4142 376.767 40.9411 377.163 39.314L368.917 37.533C368.697 38.1926 368.412 38.8522 368.06 39.5119C367.752 40.1715 367.312 40.7652 366.74 41.2929C366.213 41.8206 365.509 42.2603 364.63 42.6121C363.794 42.92 362.761 43.0739 361.529 43.0739C358.847 43.0739 356.67 42.1944 354.999 40.4353C353.606 38.9298 352.81 36.6995 352.609 33.7444L376.833 33.5092C377.009 30.299 376.767 27.4626 376.107 25C375.492 22.4934 374.48 20.3826 373.073 18.6675C371.71 16.9525 369.995 15.6772 367.928 14.8416C365.861 13.9621 363.508 13.5224 360.87 13.5224C358.143 13.5224 355.703 13.9841 353.548 14.9076C351.393 15.8311 349.568 17.1504 348.073 18.8654C346.578 20.5365 345.434 22.5373 344.643 24.868C343.895 27.1548 343.521 29.6614 343.521 32.3878C343.521 35.1583 343.917 37.6429 344.709 39.8417C345.544 42.0404 346.732 43.8874 348.271 45.3826C349.81 46.8777 351.679 48.0211 353.878 48.8127ZM352.889 28.5325C353.063 27.6606 353.304 26.8569 353.614 26.1213C354.317 24.4063 355.307 23.109 356.582 22.2295C357.857 21.35 359.331 20.9103 361.002 20.9103C362.409 20.9103 363.684 21.2621 364.828 21.9657C366.015 22.6693 366.916 23.7687 367.532 25.2638C367.9 26.1577 368.103 27.2009 368.141 28.3934L352.889 28.5325Z" fill="#111111"/>
<path d="M266.369 49.0765H275.933V33.1134C276.197 31.0026 276.703 29.2216 277.451 27.7704C278.242 26.2752 279.254 25.1319 280.485 24.3403C281.716 23.5488 283.189 23.153 284.904 23.153C285.52 23.153 286.224 23.219 287.015 23.3509C287.807 23.4828 288.532 23.7027 289.192 24.0105L289.588 13.9181C288.972 13.7862 288.422 13.7203 287.939 13.7203C287.499 13.6763 287.081 13.6543 286.685 13.6543C284.399 13.6543 282.486 14.0941 280.947 14.9736C279.407 15.8531 278.198 17.2163 277.319 19.0633C276.483 20.9102 275.889 23.3069 275.538 26.2533H274.284L274.218 14.4459H266.369V49.0765Z" fill="#111111"/>
<path d="M248.334 50C245.344 50 242.727 49.5602 240.484 48.6807C238.242 47.8012 236.373 46.5699 234.878 44.9868C233.382 43.4037 232.261 41.5347 231.513 39.3799C230.766 37.1812 230.392 34.7845 230.392 32.19C230.392 29.4635 230.766 26.9789 231.513 24.7361C232.305 22.4494 233.448 20.4705 234.944 18.7994C236.439 17.1284 238.286 15.8311 240.484 14.9076C242.683 13.9841 245.19 13.5224 248.004 13.5224C250.819 13.5224 253.259 13.9841 255.326 14.9076C257.437 15.8311 259.13 17.1284 260.405 18.7994C261.725 20.4265 262.626 22.3614 263.11 24.6042L254.337 27.4406C254.205 26.0774 253.831 24.912 253.215 23.9446C252.644 22.9331 251.852 22.1855 250.841 21.7018C249.873 21.1741 248.774 20.9103 247.542 20.9103C246.267 20.9103 245.168 21.1741 244.244 21.7018C243.321 22.1855 242.529 22.9111 241.87 23.8786C241.254 24.8021 240.77 25.9454 240.418 27.3087C240.111 28.6279 239.957 30.1231 239.957 31.7942C239.957 34.1688 240.265 36.1917 240.88 37.8628C241.54 39.4899 242.485 40.7432 243.717 41.6227C244.992 42.4582 246.553 42.876 248.4 42.876C250.159 42.876 251.566 42.5462 252.622 41.8865C253.677 41.1829 254.447 40.3034 254.93 39.248C255.458 38.1486 255.788 37.0272 255.92 35.8839L264.231 37.7309C264.011 39.4459 263.528 41.051 262.78 42.5462C262.076 44.0413 261.065 45.3386 259.746 46.438C258.426 47.5374 256.821 48.4169 254.93 49.0765C253.083 49.6922 250.885 50 248.334 50Z" fill="#111111"/>
<path d="M206.92 49.3404C208.811 49.7801 210.922 50 213.253 50C216.551 50 219.365 49.5602 221.696 48.6807C224.027 47.8012 225.808 46.5479 227.039 44.9208C228.271 43.2498 228.886 41.2709 228.886 38.9842C228.886 37.0492 228.49 35.4661 227.699 34.2348C226.907 33.0035 225.83 32.0141 224.467 31.2665C223.147 30.5189 221.652 29.9252 219.981 29.4855C218.31 29.0017 216.595 28.584 214.836 28.2322C213.165 27.8804 211.714 27.5505 210.482 27.2427C209.251 26.8909 208.284 26.4512 207.58 25.9235C206.92 25.3958 206.591 24.7141 206.591 23.8786C206.591 22.8672 207.096 22.0536 208.108 21.438C209.163 20.8223 210.636 20.5145 212.527 20.5145C214.022 20.5145 215.32 20.7124 216.419 21.1081C217.562 21.5039 218.464 22.0976 219.124 22.8892C219.827 23.6807 220.267 24.6042 220.443 25.6596L228.161 23.087C227.677 21.1081 226.731 19.4151 225.324 18.0079C223.961 16.5567 222.202 15.4573 220.047 14.7097C217.892 13.9182 215.386 13.5224 212.527 13.5224C209.361 13.5224 206.679 13.9841 204.48 14.9076C202.281 15.7871 200.61 17.0184 199.467 18.6015C198.323 20.1847 197.752 22.0316 197.752 24.1425C197.752 26.1653 198.191 27.8364 199.071 29.1556C199.994 30.4309 201.16 31.4644 202.567 32.2559C204.018 33.0475 205.579 33.6631 207.25 34.1029C208.965 34.5426 210.636 34.9604 212.263 35.3562C213.935 35.664 215.364 35.9938 216.551 36.3456C217.738 36.6974 218.64 37.1152 219.256 37.5989C219.871 38.0827 220.179 38.7423 220.179 39.5778C220.179 40.6772 219.629 41.5347 218.53 42.1504C217.431 42.7221 215.869 43.0079 213.847 43.0079C211.956 43.0079 210.329 42.766 208.965 42.2823C207.646 41.7546 206.591 41.073 205.799 40.2375C205.008 39.4019 204.524 38.5004 204.348 37.533L197.092 40.5013C197.356 41.9525 197.905 43.2718 198.741 44.4591C199.577 45.6025 200.676 46.5919 202.039 47.4274C203.402 48.263 205.03 48.9006 206.92 49.3404Z" fill="#111111"/>
<path fill-rule="evenodd" clip-rule="evenodd" d="M172.227 50C170.292 50 168.577 49.6262 167.081 48.8786C165.586 48.0871 164.421 46.9657 163.585 45.5145C162.75 44.0633 162.332 42.2603 162.332 40.1055C162.332 38.2146 162.684 36.6315 163.387 35.3562C164.135 34.0809 165.212 33.0475 166.62 32.2559C168.027 31.4644 169.764 30.8047 171.831 30.277C173.898 29.7493 176.25 29.2876 178.889 28.8918C180.296 28.6719 181.439 28.474 182.319 28.2981C183.242 28.0782 183.924 27.7484 184.364 27.3087C184.803 26.825 185.023 26.1433 185.023 25.2638C185.023 24.0325 184.584 22.9771 183.704 22.0976C182.825 21.2181 181.439 20.7783 179.548 20.7783C178.273 20.7783 177.086 20.9982 175.986 21.438C174.931 21.8777 174.008 22.5373 173.216 23.4169C172.468 24.2964 171.919 25.4177 171.567 26.781L163.19 24.2084C163.717 22.4054 164.465 20.8443 165.432 19.525C166.444 18.2058 167.653 17.1064 169.06 16.2269C170.467 15.3034 172.073 14.6218 173.876 14.182C175.679 13.7423 177.635 13.5224 179.746 13.5224C183.132 13.5224 185.881 14.0721 187.992 15.1715C190.147 16.2269 191.752 17.8979 192.807 20.1847C193.862 22.4274 194.39 25.3298 194.39 28.8918V34.8285C194.39 36.3676 194.412 37.9287 194.456 39.5119C194.544 41.095 194.632 42.7001 194.72 44.3272L195.116 49.0765H186.738C186.563 47.9771 186.387 46.7238 186.211 45.3166C186.079 43.8654 185.969 42.4142 185.881 40.963H184.694C184.078 42.6341 183.198 44.1513 182.055 45.5145C180.912 46.8777 179.504 47.9771 177.833 48.8127C176.206 49.6042 174.337 50 172.227 50ZM176.25 43.1398C177.086 43.1398 177.921 42.9859 178.757 42.6781C179.636 42.3703 180.472 41.9525 181.263 41.4248C182.099 40.8531 182.847 40.1495 183.506 39.314C184.21 38.4784 184.781 37.533 185.221 36.4776L185.118 32.1399C184.715 32.3306 184.287 32.5012 183.836 32.6517C182.781 32.9595 181.681 33.2014 180.538 33.3773C179.438 33.5532 178.339 33.7511 177.24 33.971C176.14 34.1908 175.151 34.4767 174.271 34.8285C173.436 35.1803 172.754 35.664 172.227 36.2797C171.743 36.8513 171.501 37.6649 171.501 38.7203C171.501 40.0835 171.941 41.1609 172.82 41.9525C173.7 42.7441 174.843 43.1398 176.25 43.1398Z" fill="#111111"/>
<path d="M139.325 49.0765H148.89V33.1134C149.154 31.0026 149.66 29.2216 150.407 27.7704C151.199 26.2752 152.21 25.1319 153.441 24.3403C154.673 23.5488 156.146 23.153 157.861 23.153C158.477 23.153 159.18 23.219 159.972 23.3509C160.763 23.4828 161.489 23.7027 162.149 24.0105L162.544 13.9181C161.929 13.7862 161.379 13.7203 160.895 13.7203C160.455 13.6763 160.038 13.6543 159.642 13.6543C157.355 13.6543 155.442 14.0941 153.903 14.9736C152.364 15.8531 151.155 17.2163 150.275 19.0633C149.44 20.9102 148.846 23.3069 148.494 26.2533H147.241L147.175 14.4459H139.325V49.0765Z" fill="#111111"/>
<path fill-rule="evenodd" clip-rule="evenodd" d="M118.126 50C114.652 50 111.596 49.3184 108.958 47.9551C106.319 46.5479 104.252 44.5031 102.757 41.8206C101.262 39.0941 100.514 35.708 100.514 31.6623C100.514 27.6165 101.262 24.2524 102.757 21.5699C104.296 18.8874 106.385 16.8865 109.023 15.5672C111.706 14.204 114.74 13.5224 118.126 13.5224C121.6 13.5224 124.657 14.204 127.295 15.5672C129.978 16.9305 132.067 18.9753 133.562 21.7018C135.101 24.3843 135.87 27.7484 135.87 31.7942C135.87 35.8839 135.079 39.292 133.496 42.0185C131.957 44.701 129.846 46.7018 127.163 48.0211C124.525 49.3404 121.512 50 118.126 50ZM118.456 42.9419C120.171 42.9419 121.6 42.5462 122.744 41.7546C123.931 40.963 124.811 39.7757 125.382 38.1926C125.998 36.5655 126.306 34.6086 126.306 32.3219C126.306 29.9032 125.976 27.8584 125.316 26.1873C124.701 24.4723 123.777 23.175 122.546 22.2955C121.315 21.372 119.753 20.9103 117.863 20.9103C116.235 20.9103 114.828 21.306 113.641 22.0976C112.454 22.8452 111.552 24.0325 110.936 25.6596C110.321 27.2427 110.013 29.1996 110.013 31.5303C110.013 35.2682 110.76 38.1046 112.256 40.0396C113.751 41.9745 115.818 42.9419 118.456 42.9419Z" fill="#111111"/>
<path fill-rule="evenodd" clip-rule="evenodd" d="M75.4354 5.54082C80.7124 5.54082 85.022 6.39834 88.3641 8.11338C91.7063 9.82842 94.1689 12.291 95.752 15.5013C97.3351 18.6675 98.1267 22.4714 98.1267 26.9129C98.1267 30.255 97.7309 33.1574 96.9394 35.62C96.1478 38.0826 95.0704 40.1715 93.7072 41.8865C92.3879 43.6015 90.8488 44.9868 89.0897 46.0422C87.3307 47.0976 85.4618 47.8672 83.4829 48.3509C81.504 48.8346 79.5031 49.0765 77.4802 49.0765H60V5.54082H75.4354ZM77.2164 41.3588H69.4987V13.2585H75.7652C77.876 13.2585 79.701 13.5443 81.2401 14.116C82.8232 14.6877 84.1205 15.5452 85.132 16.6886C86.1874 17.832 86.9789 19.3051 87.5066 21.1081C88.0343 22.8671 88.2982 24.978 88.2982 27.4406C88.2982 30.4309 87.8804 32.9595 87.0449 35.0263C86.2094 37.0932 84.978 38.6763 83.3509 39.7757C81.7239 40.8311 79.679 41.3588 77.2164 41.3588Z" fill="#111111"/>
</svg>